<mxfile host="app.diagrams.net" modified="2023-04-08T21:35:40.136Z" agent="Mozilla/5.0 (Windows NT 10.0; Win64; x64) AppleWebKit/537.36 (KHTML, like Gecko) Chrome/111.0.0.0 Safari/537.36 OPR/97.0.0.0" etag="L-7FBIgIbfrvJu7VG_Kt" version="21.1.5" type="device">
  <diagram name="Page-1" id="7e0a89b8-554c-2b80-1dc8-d5c74ca68de4">
    <mxGraphModel dx="721" dy="387" grid="1" gridSize="1.9685" guides="1" tooltips="1" connect="1" arrows="1" fold="1" page="1" pageScale="1" pageWidth="1100" pageHeight="850" background="none" math="0" shadow="0">
      <root>
        <mxCell id="0" />
        <mxCell id="1" parent="0" />
        <mxCell id="kgSXuMjjGfZ-QqxamhFL-2" value="" style="rounded=0;whiteSpace=wrap;html=1;" vertex="1" parent="1">
          <mxGeometry x="510" y="188.98" width="110" height="241.02" as="geometry" />
        </mxCell>
        <mxCell id="kgSXuMjjGfZ-QqxamhFL-3" value="" style="endArrow=classic;html=1;rounded=0;entryX=0.25;entryY=0;entryDx=0;entryDy=0;" edge="1" parent="1">
          <mxGeometry width="50" height="50" relative="1" as="geometry">
            <mxPoint x="511.33" y="169.61" as="sourcePoint" />
            <mxPoint x="538.83" y="189.61" as="targetPoint" />
            <Array as="points">
              <mxPoint x="539.33" y="169.61" />
            </Array>
          </mxGeometry>
        </mxCell>
        <mxCell id="kgSXuMjjGfZ-QqxamhFL-9" value="B" style="edgeLabel;html=1;align=center;verticalAlign=middle;resizable=0;points=[];" vertex="1" connectable="0" parent="kgSXuMjjGfZ-QqxamhFL-3">
          <mxGeometry x="-0.8154" y="-1" relative="1" as="geometry">
            <mxPoint x="-45" as="offset" />
          </mxGeometry>
        </mxCell>
        <mxCell id="kgSXuMjjGfZ-QqxamhFL-4" value="" style="endArrow=classic;html=1;rounded=0;entryX=0.689;entryY=0;entryDx=0;entryDy=0;entryPerimeter=0;" edge="1" parent="1">
          <mxGeometry width="50" height="50" relative="1" as="geometry">
            <mxPoint x="510.33" y="149.61" as="sourcePoint" />
            <mxPoint x="587.12" y="189.61" as="targetPoint" />
            <Array as="points">
              <mxPoint x="587.33" y="149.61" />
            </Array>
          </mxGeometry>
        </mxCell>
        <mxCell id="kgSXuMjjGfZ-QqxamhFL-8" value="A&lt;br&gt;" style="edgeLabel;html=1;align=center;verticalAlign=middle;resizable=0;points=[];" vertex="1" connectable="0" parent="kgSXuMjjGfZ-QqxamhFL-4">
          <mxGeometry x="-0.9337" relative="1" as="geometry">
            <mxPoint x="-43" as="offset" />
          </mxGeometry>
        </mxCell>
        <mxCell id="kgSXuMjjGfZ-QqxamhFL-10" value="" style="endArrow=classic;html=1;rounded=0;" edge="1" parent="1">
          <mxGeometry width="50" height="50" relative="1" as="geometry">
            <mxPoint x="670" y="292.8" as="sourcePoint" />
            <mxPoint x="620" y="292.8" as="targetPoint" />
          </mxGeometry>
        </mxCell>
        <mxCell id="kgSXuMjjGfZ-QqxamhFL-25" value="Arduino baseLeg" style="edgeLabel;html=1;align=left;verticalAlign=middle;resizable=0;points=[];" vertex="1" connectable="0" parent="kgSXuMjjGfZ-QqxamhFL-10">
          <mxGeometry relative="1" as="geometry">
            <mxPoint x="30" as="offset" />
          </mxGeometry>
        </mxCell>
        <mxCell id="kgSXuMjjGfZ-QqxamhFL-11" value="" style="endArrow=classic;html=1;rounded=0;" edge="1" parent="1">
          <mxGeometry width="50" height="50" relative="1" as="geometry">
            <mxPoint x="670" y="312.8" as="sourcePoint" />
            <mxPoint x="620" y="312.8" as="targetPoint" />
          </mxGeometry>
        </mxCell>
        <mxCell id="kgSXuMjjGfZ-QqxamhFL-26" value="Arduino middleLeg" style="edgeLabel;html=1;align=left;verticalAlign=middle;resizable=0;points=[];" vertex="1" connectable="0" parent="kgSXuMjjGfZ-QqxamhFL-11">
          <mxGeometry relative="1" as="geometry">
            <mxPoint x="30" as="offset" />
          </mxGeometry>
        </mxCell>
        <mxCell id="kgSXuMjjGfZ-QqxamhFL-12" value="" style="endArrow=classic;html=1;rounded=0;" edge="1" parent="1">
          <mxGeometry width="50" height="50" relative="1" as="geometry">
            <mxPoint x="670" y="332.8" as="sourcePoint" />
            <mxPoint x="620" y="332.8" as="targetPoint" />
          </mxGeometry>
        </mxCell>
        <mxCell id="kgSXuMjjGfZ-QqxamhFL-27" value="Arduino endLeg" style="edgeLabel;html=1;align=left;verticalAlign=middle;resizable=0;points=[];" vertex="1" connectable="0" parent="kgSXuMjjGfZ-QqxamhFL-12">
          <mxGeometry relative="1" as="geometry">
            <mxPoint x="30" y="1" as="offset" />
          </mxGeometry>
        </mxCell>
        <mxCell id="kgSXuMjjGfZ-QqxamhFL-16" value="" style="endArrow=classic;html=1;rounded=0;" edge="1" parent="1">
          <mxGeometry width="50" height="50" relative="1" as="geometry">
            <mxPoint x="510" y="310" as="sourcePoint" />
            <mxPoint x="460" y="310" as="targetPoint" />
          </mxGeometry>
        </mxCell>
        <mxCell id="kgSXuMjjGfZ-QqxamhFL-38" value="Arduino Selected LEG 1&amp;nbsp;" style="edgeLabel;html=1;align=right;verticalAlign=middle;resizable=0;points=[];" vertex="1" connectable="0" parent="kgSXuMjjGfZ-QqxamhFL-16">
          <mxGeometry x="0.4773" y="-1" relative="1" as="geometry">
            <mxPoint x="-14" y="2" as="offset" />
          </mxGeometry>
        </mxCell>
        <mxCell id="kgSXuMjjGfZ-QqxamhFL-17" value="" style="endArrow=classic;html=1;rounded=0;" edge="1" parent="1">
          <mxGeometry width="50" height="50" relative="1" as="geometry">
            <mxPoint x="510" y="390" as="sourcePoint" />
            <mxPoint x="460" y="390" as="targetPoint" />
          </mxGeometry>
        </mxCell>
        <mxCell id="kgSXuMjjGfZ-QqxamhFL-37" value="Arduino Selected&amp;nbsp;&amp;nbsp;LEG 2" style="edgeLabel;html=1;align=right;verticalAlign=middle;resizable=0;points=[];" vertex="1" connectable="0" parent="kgSXuMjjGfZ-QqxamhFL-17">
          <mxGeometry x="0.2293" y="-1" relative="1" as="geometry">
            <mxPoint x="-20" as="offset" />
          </mxGeometry>
        </mxCell>
        <mxCell id="kgSXuMjjGfZ-QqxamhFL-18" value="" style="pointerEvents=1;verticalLabelPosition=bottom;shadow=0;dashed=0;align=center;html=1;verticalAlign=top;shape=mxgraph.electrical.electro-mechanical.selectorSwitch3Position2;elSwitchState=1;" vertex="1" parent="1">
          <mxGeometry x="531.5" y="290" width="88.51" height="46" as="geometry" />
        </mxCell>
        <mxCell id="kgSXuMjjGfZ-QqxamhFL-19" value="" style="endArrow=classic;html=1;rounded=0;" edge="1" parent="1">
          <mxGeometry width="50" height="50" relative="1" as="geometry">
            <mxPoint x="670" y="372.8" as="sourcePoint" />
            <mxPoint x="620" y="372.8" as="targetPoint" />
          </mxGeometry>
        </mxCell>
        <mxCell id="kgSXuMjjGfZ-QqxamhFL-20" value="" style="endArrow=classic;html=1;rounded=0;" edge="1" parent="1">
          <mxGeometry width="50" height="50" relative="1" as="geometry">
            <mxPoint x="670" y="392.8" as="sourcePoint" />
            <mxPoint x="620" y="392.8" as="targetPoint" />
          </mxGeometry>
        </mxCell>
        <mxCell id="kgSXuMjjGfZ-QqxamhFL-21" value="" style="endArrow=classic;html=1;rounded=0;" edge="1" parent="1">
          <mxGeometry width="50" height="50" relative="1" as="geometry">
            <mxPoint x="670" y="412.8" as="sourcePoint" />
            <mxPoint x="620" y="412.8" as="targetPoint" />
          </mxGeometry>
        </mxCell>
        <mxCell id="kgSXuMjjGfZ-QqxamhFL-22" value="" style="pointerEvents=1;verticalLabelPosition=bottom;shadow=0;dashed=0;align=center;html=1;verticalAlign=top;shape=mxgraph.electrical.electro-mechanical.selectorSwitch3Position2;elSwitchState=1;" vertex="1" parent="1">
          <mxGeometry x="531.5" y="370" width="88.51" height="46" as="geometry" />
        </mxCell>
        <mxCell id="kgSXuMjjGfZ-QqxamhFL-28" value="Arduino baseLeg" style="edgeLabel;html=1;align=left;verticalAlign=middle;resizable=0;points=[];" vertex="1" connectable="0" parent="1">
          <mxGeometry x="675.1910287356321" y="372.49850000000004" as="geometry" />
        </mxCell>
        <mxCell id="kgSXuMjjGfZ-QqxamhFL-29" value="Arduino middleLeg" style="edgeLabel;html=1;align=left;verticalAlign=middle;resizable=0;points=[];" vertex="1" connectable="0" parent="1">
          <mxGeometry x="675.1910287356321" y="392.49850000000004" as="geometry" />
        </mxCell>
        <mxCell id="kgSXuMjjGfZ-QqxamhFL-30" value="Arduino endLeg" style="edgeLabel;html=1;align=left;verticalAlign=middle;resizable=0;points=[];" vertex="1" connectable="0" parent="1">
          <mxGeometry x="675.1910287356321" y="413.4985" as="geometry" />
        </mxCell>
        <mxCell id="kgSXuMjjGfZ-QqxamhFL-31" value="" style="shape=curlyBracket;whiteSpace=wrap;html=1;rounded=1;flipH=1;labelPosition=right;verticalLabelPosition=middle;align=left;verticalAlign=middle;size=0.31092500000000883;" vertex="1" parent="1">
          <mxGeometry x="771.65" y="290" width="12.12" height="48.58" as="geometry" />
        </mxCell>
        <mxCell id="kgSXuMjjGfZ-QqxamhFL-34" value="LEG 1" style="text;html=1;align=center;verticalAlign=middle;resizable=0;points=[];autosize=1;strokeColor=none;fillColor=none;" vertex="1" parent="1">
          <mxGeometry x="779.5305" y="299.2205" width="53.149499999999996" height="27.558999999999997" as="geometry" />
        </mxCell>
        <mxCell id="kgSXuMjjGfZ-QqxamhFL-35" value="" style="shape=curlyBracket;whiteSpace=wrap;html=1;rounded=1;flipH=1;labelPosition=right;verticalLabelPosition=middle;align=left;verticalAlign=middle;size=0.31092500000000883;" vertex="1" parent="1">
          <mxGeometry x="771.6484999999999" y="372.49850000000004" width="12.12" height="48.58" as="geometry" />
        </mxCell>
        <mxCell id="kgSXuMjjGfZ-QqxamhFL-36" value="LEG 2" style="text;html=1;align=center;verticalAlign=middle;resizable=0;points=[];autosize=1;strokeColor=none;fillColor=none;" vertex="1" parent="1">
          <mxGeometry x="779.5289999999999" y="381.71900000000005" width="53.149499999999996" height="27.558999999999997" as="geometry" />
        </mxCell>
        <mxCell id="kgSXuMjjGfZ-QqxamhFL-39" value="" style="shape=table;startSize=0;container=1;collapsible=0;childLayout=tableLayout;" vertex="1" parent="1">
          <mxGeometry x="518.6500000000001" y="192.91" width="92.7079999999996" height="68.81" as="geometry" />
        </mxCell>
        <mxCell id="kgSXuMjjGfZ-QqxamhFL-40" value="" style="shape=tableRow;horizontal=0;startSize=0;swimlaneHead=0;swimlaneBody=0;strokeColor=inherit;top=0;left=0;bottom=0;right=0;collapsible=0;dropTarget=0;fillColor=none;points=[[0,0.5],[1,0.5]];portConstraint=eastwest;" vertex="1" parent="kgSXuMjjGfZ-QqxamhFL-39">
          <mxGeometry width="92.7079999999996" height="23" as="geometry" />
        </mxCell>
        <mxCell id="kgSXuMjjGfZ-QqxamhFL-41" value="00" style="shape=partialRectangle;html=1;whiteSpace=wrap;connectable=0;strokeColor=inherit;overflow=hidden;fillColor=none;top=0;left=0;bottom=0;right=0;pointerEvents=1;" vertex="1" parent="kgSXuMjjGfZ-QqxamhFL-40">
          <mxGeometry width="27" height="23" as="geometry">
            <mxRectangle width="27" height="23" as="alternateBounds" />
          </mxGeometry>
        </mxCell>
        <mxCell id="kgSXuMjjGfZ-QqxamhFL-42" value="baseLeg" style="shape=partialRectangle;html=1;whiteSpace=wrap;connectable=0;strokeColor=inherit;overflow=hidden;fillColor=none;top=0;left=0;bottom=0;right=0;pointerEvents=1;" vertex="1" parent="kgSXuMjjGfZ-QqxamhFL-40">
          <mxGeometry x="27" width="66" height="23" as="geometry">
            <mxRectangle width="66" height="23" as="alternateBounds" />
          </mxGeometry>
        </mxCell>
        <mxCell id="kgSXuMjjGfZ-QqxamhFL-43" value="" style="shape=tableRow;horizontal=0;startSize=0;swimlaneHead=0;swimlaneBody=0;strokeColor=inherit;top=0;left=0;bottom=0;right=0;collapsible=0;dropTarget=0;fillColor=none;points=[[0,0.5],[1,0.5]];portConstraint=eastwest;" vertex="1" parent="kgSXuMjjGfZ-QqxamhFL-39">
          <mxGeometry y="23" width="92.7079999999996" height="23" as="geometry" />
        </mxCell>
        <mxCell id="kgSXuMjjGfZ-QqxamhFL-44" value="01" style="shape=partialRectangle;html=1;whiteSpace=wrap;connectable=0;strokeColor=inherit;overflow=hidden;fillColor=none;top=0;left=0;bottom=0;right=0;pointerEvents=1;" vertex="1" parent="kgSXuMjjGfZ-QqxamhFL-43">
          <mxGeometry width="27" height="23" as="geometry">
            <mxRectangle width="27" height="23" as="alternateBounds" />
          </mxGeometry>
        </mxCell>
        <mxCell id="kgSXuMjjGfZ-QqxamhFL-45" value="middleLeg" style="shape=partialRectangle;html=1;whiteSpace=wrap;connectable=0;strokeColor=inherit;overflow=hidden;fillColor=none;top=0;left=0;bottom=0;right=0;pointerEvents=1;" vertex="1" parent="kgSXuMjjGfZ-QqxamhFL-43">
          <mxGeometry x="27" width="66" height="23" as="geometry">
            <mxRectangle width="66" height="23" as="alternateBounds" />
          </mxGeometry>
        </mxCell>
        <mxCell id="kgSXuMjjGfZ-QqxamhFL-46" value="" style="shape=tableRow;horizontal=0;startSize=0;swimlaneHead=0;swimlaneBody=0;strokeColor=inherit;top=0;left=0;bottom=0;right=0;collapsible=0;dropTarget=0;fillColor=none;points=[[0,0.5],[1,0.5]];portConstraint=eastwest;" vertex="1" parent="kgSXuMjjGfZ-QqxamhFL-39">
          <mxGeometry y="46" width="92.7079999999996" height="23" as="geometry" />
        </mxCell>
        <mxCell id="kgSXuMjjGfZ-QqxamhFL-47" value="10" style="shape=partialRectangle;html=1;whiteSpace=wrap;connectable=0;strokeColor=inherit;overflow=hidden;fillColor=none;top=0;left=0;bottom=0;right=0;pointerEvents=1;" vertex="1" parent="kgSXuMjjGfZ-QqxamhFL-46">
          <mxGeometry width="27" height="23" as="geometry">
            <mxRectangle width="27" height="23" as="alternateBounds" />
          </mxGeometry>
        </mxCell>
        <mxCell id="kgSXuMjjGfZ-QqxamhFL-48" value="endLeg" style="shape=partialRectangle;html=1;whiteSpace=wrap;connectable=0;strokeColor=inherit;overflow=hidden;fillColor=none;top=0;left=0;bottom=0;right=0;pointerEvents=1;" vertex="1" parent="kgSXuMjjGfZ-QqxamhFL-46">
          <mxGeometry x="27" width="66" height="23" as="geometry">
            <mxRectangle width="66" height="23" as="alternateBounds" />
          </mxGeometry>
        </mxCell>
        <mxCell id="kgSXuMjjGfZ-QqxamhFL-51" value="" style="endArrow=none;html=1;rounded=0;entryX=0.143;entryY=1.007;entryDx=0;entryDy=0;entryPerimeter=0;exitX=0.003;exitY=0.511;exitDx=0;exitDy=0;exitPerimeter=0;" edge="1" parent="1" source="kgSXuMjjGfZ-QqxamhFL-22" target="kgSXuMjjGfZ-QqxamhFL-39">
          <mxGeometry width="50" height="50" relative="1" as="geometry">
            <mxPoint x="531" y="394" as="sourcePoint" />
            <mxPoint x="615" y="311" as="targetPoint" />
          </mxGeometry>
        </mxCell>
        <mxCell id="kgSXuMjjGfZ-QqxamhFL-52" value="00" style="text;html=1;align=center;verticalAlign=middle;resizable=0;points=[];autosize=1;strokeColor=none;fillColor=none;" vertex="1" parent="1">
          <mxGeometry x="590.5464999999999" y="271.662" width="31.496" height="27.558999999999997" as="geometry" />
        </mxCell>
        <mxCell id="kgSXuMjjGfZ-QqxamhFL-53" value="01" style="text;html=1;align=center;verticalAlign=middle;resizable=0;points=[];autosize=1;strokeColor=none;fillColor=none;" vertex="1" parent="1">
          <mxGeometry x="590.5455" y="291.33549999999997" width="31.496" height="27.558999999999997" as="geometry" />
        </mxCell>
        <mxCell id="kgSXuMjjGfZ-QqxamhFL-54" value="10" style="text;html=1;align=center;verticalAlign=middle;resizable=0;points=[];autosize=1;strokeColor=none;fillColor=none;" vertex="1" parent="1">
          <mxGeometry x="590.5414999999999" y="312.995" width="31.496" height="27.558999999999997" as="geometry" />
        </mxCell>
        <mxCell id="kgSXuMjjGfZ-QqxamhFL-55" value="00" style="text;html=1;align=center;verticalAlign=middle;resizable=0;points=[];autosize=1;strokeColor=none;fillColor=none;" vertex="1" parent="1">
          <mxGeometry x="590.5549999999998" y="352.3605" width="31.496" height="27.558999999999997" as="geometry" />
        </mxCell>
        <mxCell id="kgSXuMjjGfZ-QqxamhFL-56" value="01" style="text;html=1;align=center;verticalAlign=middle;resizable=0;points=[];autosize=1;strokeColor=none;fillColor=none;" vertex="1" parent="1">
          <mxGeometry x="590.5539999999999" y="372.49399999999997" width="31.496" height="27.558999999999997" as="geometry" />
        </mxCell>
        <mxCell id="kgSXuMjjGfZ-QqxamhFL-57" value="10" style="text;html=1;align=center;verticalAlign=middle;resizable=0;points=[];autosize=1;strokeColor=none;fillColor=none;" vertex="1" parent="1">
          <mxGeometry x="590.5499999999998" y="393.5235" width="31.496" height="27.558999999999997" as="geometry" />
        </mxCell>
      </root>
    </mxGraphModel>
  </diagram>
</mxfile>
